# xmcd
#
# Track frame offsets:
#	150
#	25430
#	44543
#	64774
#	82219
#	98299
#	114296
#	133945
#	157544
#	175528
#	188134
#	202662
#	220701
#	239577
#
# Disc length: 3471 seconds
#
# Revision: 1
# Processed by: cddbd v1.5.2PL0 Copyright (c) Steve Scherf et al.
# Submitted via: audiograbber 1.83.01
#
DISCID=b00d8d0e
DTITLE=J.J.Cale and Eric Clapton - The Road to Escondido
DYEAR=1900
DGENRE=Pop-Folk
TTITLE0=Danger
TTITLE1=Heads in Georgia
TTITLE2=Missing person
TTITLE3=When this war is over
TTITLE4=Sporting life blues
TTITLE5=Dead end road
TTITLE6=It's easy
TTITLE7=Hard to thrill
TTITLE8=Anyway the wind blows
TTITLE9=Three little girls
TTITLE10=Don't cry sister
TTITLE11=Last will and testament
TTITLE12=Who am i telling you
TTITLE13=Ride to river
EXTD=
EXTT0=
EXTT1=
EXTT2=
EXTT3=
EXTT4=
EXTT5=
EXTT6=
EXTT7=
EXTT8=
EXTT9=
EXTT10=
EXTT11=
EXTT12=
EXTT13=
PLAYORDER=
